<?xml version="1.0" encoding="utf-8"?>
<!-- Generator: Adobe Illustrator 26.3.1, SVG Export Plug-In . SVG Version: 6.00 Build 0)  -->
<svg version="1.1" id="Layer_1" xmlns="http://www.w3.org/2000/svg" xmlns:xlink="http://www.w3.org/1999/xlink" x="0px" y="0px"
	 viewBox="0 0 9 12" style="enable-background:new 0 0 9 12;" xml:space="preserve">
<style type="text/css">
	.st0{fill:#F02624;}
</style>
<path class="st0" d="M8.2,6H2.5V3.5c0-1.1,0.9-2,2-2s2,0.9,2,2C6.5,3.8,6.7,4,7,4h0.5C7.8,4,8,3.8,8,3.5C8,1.6,6.4,0,4.5,0
	S1,1.6,1,3.5V6H0.7C0.3,6,0,6.3,0,6.8v4.5C0,11.7,0.3,12,0.7,12h7.5C8.7,12,9,11.7,9,11.3V6.8C9,6.3,8.7,6,8.2,6z"/>
</svg>
