<?xml version="1.0" encoding="UTF-8"?><svg id="Layer_1" xmlns="http://www.w3.org/2000/svg" viewBox="0 0 10 12"><defs><style>.cls-1{fill:#21212b;}</style></defs><path class="cls-1" d="M8,9.75c0,.14-.11,.25-.25,.25H2.25c-.14,0-.25-.11-.25-.25v-.5c0-.14,.11-.25,.25-.25H7.75c.14,0,.25,.11,.25,.25v.5Zm0-2c0,.14-.11,.25-.25,.25H2.25c-.14,0-.25-.11-.25-.25v-.5c0-.14,.11-.25,.25-.25H7.75c.14,0,.25,.11,.25,.25v.5Zm2-2.75H5.75c-.41,0-.75-.34-.75-.75V0H.75C.34,0,0,.34,0,.75V11.25c0,.41,.34,.75,.75,.75H9.25c.41,0,.75-.34,.75-.75V5Zm-.02-1c-.07-.38-.27-.8-.51-1.03L7.03,.53c-.23-.23-.66-.44-1.03-.51v3.98h3.98Z"/></svg>