<?xml version="1.0" encoding="UTF-8"?><svg id="Layer_1" xmlns="http://www.w3.org/2000/svg" viewBox="0 0 15 10"><defs><style>.cls-1{fill:#21212b;}</style></defs><path class="cls-1" d="M3.25,8H11.75c.69,0,1.25-.56,1.25-1.25V1.25c0-.69-.56-1.25-1.25-1.25H3.25c-.69,0-1.25,.56-1.25,1.25V6.75c0,.69,.56,1.25,1.25,1.25Zm-.25-6.75c0-.13,.12-.25,.25-.25H11.75c.13,0,.25,.12,.25,.25V6.75c0,.13-.12,.25-.25,.25H3.25c-.13,0-.25-.12-.25-.25V1.25ZM0,8.5v.75c0,.41,.56,.75,1.25,.75H13.75c.69,0,1.25-.34,1.25-.75v-.75H0Zm8.12,.75h-1.25c-.07,0-.12-.05-.12-.12s.05-.12,.12-.12h1.25c.07,0,.12,.05,.12,.12s-.05,.12-.12,.12Z"/></svg>