<?xml version="1.0" encoding="utf-8"?>
<!-- Generator: Adobe Illustrator 26.3.1, SVG Export Plug-In . SVG Version: 6.00 Build 0)  -->
<svg version="1.1" id="Layer_1" xmlns="http://www.w3.org/2000/svg" xmlns:xlink="http://www.w3.org/1999/xlink" x="0px" y="0px"
	 viewBox="0 0 10 12" style="enable-background:new 0 0 10 12;" xml:space="preserve">
<style type="text/css">
	.st0{fill:#F02126;}
</style>
<path class="st0" d="M8,9.8C8,9.9,7.9,10,7.8,10H2.2C2.1,10,2,9.9,2,9.8V9.2C2,9.1,2.1,9,2.2,9h5.5C7.9,9,8,9.1,8,9.2V9.8z M8,7.8
	C8,7.9,7.9,8,7.8,8H2.2C2.1,8,2,7.9,2,7.8V7.2C2,7.1,2.1,7,2.2,7h5.5C7.9,7,8,7.1,8,7.2V7.8z M10,5H5.8C5.3,5,5,4.7,5,4.2V0H0.8
	C0.3,0,0,0.3,0,0.8v10.5C0,11.7,0.3,12,0.8,12h8.5c0.4,0,0.8-0.3,0.8-0.8V5z M10,4C9.9,3.6,9.7,3.2,9.5,3L7,0.5C6.8,0.3,6.4,0.1,6,0
	v4H10z"/>
</svg>
