<?xml version="1.0" encoding="utf-8"?>
<!-- Generator: Adobe Illustrator 27.5.0, SVG Export Plug-In . SVG Version: 6.00 Build 0)  -->
<!DOCTYPE svg PUBLIC "-//W3C//DTD SVG 1.1//EN" "http://www.w3.org/Graphics/SVG/1.1/DTD/svg11.dtd" [
	<!ENTITY Drop_x0020_Shadow "fill:none;">
	<!ENTITY Round_x0020_Corners_x0020_2_x0020_pt "fill:#FFFFFF;stroke:#231F20;stroke-miterlimit:10;">
	<!ENTITY Live_x0020_Reflect_x0020_X "fill:none;">
	<!ENTITY Bevel_x0020_Soft "fill:url(#SVGID_1_);">
	<!ENTITY Dusk "fill:#FFFFFF;">
	<!ENTITY Foliage_GS "fill:#FFDD00;">
	<!ENTITY Pompadour_GS "fill-rule:evenodd;clip-rule:evenodd;fill:#44ADE2;">
	<!ENTITY st0 "fill:#FFFFFF;">
]>
<svg version="1.1" id="Layer_1" xmlns="http://www.w3.org/2000/svg" xmlns:xlink="http://www.w3.org/1999/xlink" x="0px" y="0px"
	 viewBox="0 0 512 512" style="enable-background:new 0 0 512 512;" xml:space="preserve">
<linearGradient id="SVGID_1_" gradientUnits="userSpaceOnUse" x1="-90.1599" y1="-213.5574" x2="-89.4528" y2="-212.8503">
	<stop  offset="0" style="stop-color:#DEDFE3"/>
	<stop  offset="0.1783" style="stop-color:#DADBDF"/>
	<stop  offset="0.3611" style="stop-color:#CECFD3"/>
	<stop  offset="0.546" style="stop-color:#B9BCBF"/>
	<stop  offset="0.7324" style="stop-color:#9CA0A2"/>
	<stop  offset="0.9181" style="stop-color:#787D7E"/>
	<stop  offset="1" style="stop-color:#656B6C"/>
</linearGradient>
<path id="Path_4927" style="&st0;" d="M199.1,455.1c-15.7,0-28.4-12.7-28.4-28.4s12.7-28.4,28.4-28.4h284.4
	c15.7,0,28.4,12.7,28.4,28.4s-12.7,28.4-28.4,28.4H199.1z M199.1,284.4c-15.7,0-28.4-12.7-28.4-28.4s12.7-28.4,28.4-28.4h284.4
	c15.7,0,28.4,12.7,28.4,28.4s-12.7,28.4-28.4,28.4H199.1z M199.1,113.8c-15.8-0.1-28.6-13.1-28.4-28.9c0.1-7.4,3-14.5,8.2-19.8
	c5.3-5.4,12.7-8.4,20.3-8.2h284.4C499.4,57,512.1,70,512,85.8c-0.1,7.4-3,14.5-8.2,19.8c-5.3,5.4-12.7,8.4-20.3,8.2H199.1z
	 M56.9,483.6c-15.1,0.2-29.7-5.8-40.2-16.7c-22.2-22.3-22.1-58.3,0.1-80.5c10.6-10.6,25-16.6,40.1-16.6c15.1-0.2,29.7,5.8,40.2,16.7
	c22.2,22.3,22.1,58.3-0.1,80.5C86.3,477.6,71.9,483.5,56.9,483.6z M56.9,312.9c-15.1,0.2-29.7-5.8-40.2-16.7
	c-22.2-22.3-22.1-58.3,0.1-80.5c10.6-10.6,25-16.6,40.1-16.6c15.1-0.2,29.7,5.8,40.2,16.7c22.2,22.3,22.1,58.3-0.1,80.5
	C86.3,306.9,71.9,312.9,56.9,312.9z M56.9,142.2c-15.1,0.2-29.7-5.8-40.2-16.7c-22.2-22.1-22.3-57.9-0.2-80.1
	c0.1-0.1,0.1-0.1,0.2-0.2c10.5-10.9,25.1-16.9,40.2-16.7c15.1-0.2,29.7,5.8,40.2,16.7c22.2,22.1,22.3,57.9,0.2,80.1
	c-0.1,0.1-0.1,0.1-0.2,0.2C86.6,136.4,72,142.5,56.9,142.2z"/>
</svg>
