<?xml version="1.0" encoding="utf-8"?>
<!-- Generator: Adobe Illustrator 27.5.0, SVG Export Plug-In . SVG Version: 6.00 Build 0)  -->
<!DOCTYPE svg PUBLIC "-//W3C//DTD SVG 1.1//EN" "http://www.w3.org/Graphics/SVG/1.1/DTD/svg11.dtd" [
	<!ENTITY Drop_x0020_Shadow "fill:none;">
	<!ENTITY Round_x0020_Corners_x0020_2_x0020_pt "fill:#FFFFFF;stroke:#231F20;stroke-miterlimit:10;">
	<!ENTITY Live_x0020_Reflect_x0020_X "fill:none;">
	<!ENTITY Bevel_x0020_Soft "fill:url(#SVGID_1_);">
	<!ENTITY Dusk "fill:#FFFFFF;">
	<!ENTITY Foliage_GS "fill:#FFDD00;">
	<!ENTITY Pompadour_GS "fill-rule:evenodd;clip-rule:evenodd;fill:#44ADE2;">
	<!ENTITY st0 "fill:#FFFFFF;">
]>
<svg version="1.1" id="Layer_1" xmlns="http://www.w3.org/2000/svg" xmlns:xlink="http://www.w3.org/1999/xlink" x="0px" y="0px"
	 viewBox="0 0 512 512" style="enable-background:new 0 0 512 512;" xml:space="preserve">
<linearGradient id="SVGID_1_" gradientUnits="userSpaceOnUse" x1="-90.1599" y1="-213.5574" x2="-89.4528" y2="-212.8503">
	<stop  offset="0" style="stop-color:#DEDFE3"/>
	<stop  offset="0.1783" style="stop-color:#DADBDF"/>
	<stop  offset="0.3611" style="stop-color:#CECFD3"/>
	<stop  offset="0.546" style="stop-color:#B9BCBF"/>
	<stop  offset="0.7324" style="stop-color:#9CA0A2"/>
	<stop  offset="0.9181" style="stop-color:#787D7E"/>
	<stop  offset="1" style="stop-color:#656B6C"/>
</linearGradient>
<path id="Path_4968" style="&st0;" d="M227.4,164.8v104.7c0.1,10,5.4,19.3,13.9,24.5l88.8,52.7c10.2,5.9,23.2,2.6,29.3-7.4
	c6.1-10.1,2.8-23.2-7.3-29.3c0,0-0.1,0-0.1-0.1l-81.7-48.7v-96.8c-0.4-11.7-10-20.9-21.6-21.1C237,143.5,227.5,153.1,227.4,164.8z
	 M512,186.2V35.6c-0.1-7.9-6.6-14.1-14.4-14c-3.7,0.1-7.2,1.5-9.8,4.1l-50.7,50.7C337.2-23.8,175-23.9,74.9,76.1
	C33.9,117,8,170.7,1.4,228.3C-13.2,369,89.1,494.9,229.8,509.5c137.5,14.2,261.6-83.3,280.2-220.3c1.9-15.6-9.2-29.8-24.8-31.7
	c-1.2-0.1-2.4-0.2-3.6-0.2c-14.1-0.1-26.1,10.4-27.9,24.5C441,382.6,354.6,457.9,253,456.6c-107.2-3-193.4-89.2-196.4-196.4
	C55,150.1,142.9,59.7,252.9,58.1c53.8-0.8,105.7,20.3,143.8,58.4l-59.5,59.5c-5.7,5.5-5.8,14.5-0.4,20.1c2.7,2.8,6.4,4.4,10.3,4.4
	h150.6C505.6,200.4,512,194,512,186.2z"/>
</svg>
